<svg width="24" height="25" viewBox="0 0 24 25" fill="none" xmlns="http://www.w3.org/2000/svg">
    <path d="M11.1928 16.9731C11.2496 17.1101 11.2646 17.261 11.2357 17.4065C11.2068 17.552 11.1355 17.6857 11.0306 17.7906L8.03061 20.7906C7.96095 20.8603 7.87823 20.9157 7.78719 20.9534C7.69614 20.9912 7.59854 21.0106 7.49998 21.0106C7.40142 21.0106 7.30382 20.9912 7.21278 20.9534C7.12173 20.9157 7.03901 20.8603 6.96936 20.7906L3.96936 17.7906C3.86435 17.6857 3.79282 17.552 3.76383 17.4065C3.73485 17.2609 3.7497 17.11 3.80651 16.9729C3.86333 16.8358 3.95955 16.7186 4.08299 16.6362C4.20644 16.5538 4.35156 16.5099 4.49998 16.51H6.74998L6.74998 5.25999C6.74998 5.06108 6.829 4.87031 6.96965 4.72966C7.1103 4.58901 7.30107 4.50999 7.49998 4.50999C7.69889 4.50999 7.88966 4.58901 8.03031 4.72966C8.17096 4.87031 8.24998 5.06108 8.24998 5.25999L8.24998 16.51H10.5C10.6483 16.51 10.7933 16.554 10.9166 16.6365C11.0399 16.7189 11.1361 16.8361 11.1928 16.9731ZM20.0306 7.72936L17.0306 4.72936C16.961 4.65963 16.8782 4.60431 16.7872 4.56657C16.6961 4.52883 16.5985 4.5094 16.5 4.5094C16.4014 4.5094 16.3038 4.52883 16.2128 4.56657C16.1217 4.60431 16.039 4.65963 15.9694 4.72936L12.9694 7.72936C12.8643 7.83426 12.7928 7.96795 12.7638 8.11351C12.7348 8.25907 12.7497 8.40997 12.8065 8.54708C12.8633 8.6842 12.9595 8.80138 13.083 8.88378C13.2064 8.96618 13.3516 9.01011 13.5 9.00999H15.75L15.75 20.26C15.75 20.4589 15.829 20.6497 15.9697 20.7903C16.1103 20.931 16.3011 21.01 16.5 21.01C16.6989 21.01 16.8897 20.931 17.0303 20.7903C17.171 20.6497 17.25 20.4589 17.25 20.26V9.00999L19.5 9.00999C19.6484 9.01011 19.7935 8.96618 19.917 8.88378C20.0404 8.80138 20.1366 8.6842 20.1934 8.54708C20.2503 8.40997 20.2651 8.25907 20.2361 8.11351C20.2071 7.96795 20.1356 7.83426 20.0306 7.72936Z" fill="currentColor"/>
</svg>
