<svg width="16" height="16" viewBox="0 0 16 16" fill="none" xmlns="http://www.w3.org/2000/svg">
    <path d="M10.1465 12.8536L5.14649 7.85356C5.10001 7.80713 5.06313 7.75198 5.03796 7.69128C5.0128 7.63059 4.99985 7.56552 4.99985 7.49981C4.99985 7.43411 5.0128 7.36904 5.03796 7.30834C5.06313 7.24765 5.10001 7.1925 5.14649 7.14606L10.1465 2.14606C10.2164 2.07606 10.3055 2.02837 10.4026 2.00905C10.4996 1.98972 10.6002 1.99963 10.6916 2.0375C10.7831 2.07538 10.8612 2.13953 10.9161 2.22182C10.971 2.30412 11.0003 2.40087 11.0002 2.49981L11.0002 12.4998C11.0003 12.5988 10.971 12.6955 10.9161 12.7778C10.8612 12.8601 10.7831 12.9242 10.6916 12.9621C10.6002 13 10.4996 13.0099 10.4026 12.9906C10.3055 12.9713 10.2164 12.9236 10.1465 12.8536Z" fill="currentColor"/>
</svg>
