<svg width="24" height="25" viewBox="0 0 24 25" fill="none" xmlns="http://www.w3.org/2000/svg">
    <path d="M2.32032 11.5919C2.54179 9.7348 3.30139 7.98294 4.50563 6.55193C4.63888 6.39126 4.80419 6.26016 4.991 6.16702C5.17781 6.07389 5.382 6.02077 5.59051 6.01107C5.79902 6.00136 6.00726 6.03528 6.20192 6.11066C6.39657 6.18603 6.57335 6.3012 6.72094 6.44881L9.31501 9.09818C9.56483 9.34743 9.71792 9.67737 9.74695 10.0291C9.77597 10.3808 9.67903 10.7313 9.47344 11.0182C9.31772 11.2391 9.20044 11.4847 9.12657 11.7447C9.1031 11.8215 9.05566 11.8886 8.9912 11.9364C8.92674 11.9841 8.84866 12.01 8.76844 12.0101L2.69344 12.0101C2.64051 12.0101 2.58815 11.999 2.53982 11.9774C2.49149 11.9558 2.44828 11.9242 2.41304 11.8847C2.37779 11.8452 2.35131 11.7987 2.33533 11.7483C2.31935 11.6978 2.31423 11.6445 2.32032 11.5919ZM12.8803 3.01568C12.6731 2.99761 12.4645 3.02283 12.2675 3.08972C12.0706 3.15661 11.8898 3.26373 11.7364 3.40425C11.5831 3.54478 11.4607 3.71565 11.377 3.90602C11.2932 4.09638 11.25 4.30208 11.25 4.51006V8.32287C11.2474 8.67666 11.3711 9.01979 11.5987 9.2906C11.8264 9.56141 12.1432 9.74215 12.4922 9.80037C13.1493 9.90878 13.7517 10.2328 14.2044 10.7213C14.6571 11.2098 14.9343 11.8351 14.9924 12.4986C15.0505 13.162 14.8862 13.826 14.5254 14.3858C14.1645 14.9456 13.6277 15.3694 12.9994 15.5904C12.9263 15.6172 12.8631 15.6659 12.8185 15.7298C12.7739 15.7936 12.75 15.8697 12.75 15.9476L12.75 22.0629C12.7497 22.116 12.7606 22.1685 12.7821 22.2171C12.8035 22.2656 12.8351 22.3091 12.8746 22.3445C12.9141 22.38 12.9608 22.4066 13.0113 22.4227C13.0619 22.4388 13.1154 22.444 13.1681 22.4379C15.508 22.149 17.6648 21.0248 19.2416 19.272C20.8185 17.5193 21.7092 15.2561 21.75 12.8988C21.8203 7.80912 17.9241 3.46756 12.8803 3.01568ZM10.9922 15.5876C10.573 15.438 10.1923 15.1971 9.87769 14.8822C9.56311 14.5673 9.32255 14.1863 9.17344 13.7669C9.14788 13.6926 9.0999 13.6279 9.03611 13.5819C8.97231 13.5359 8.89584 13.5108 8.81719 13.5101L2.69251 13.5101C2.6395 13.5097 2.58703 13.5206 2.53854 13.5421C2.49006 13.5635 2.44667 13.5949 2.41123 13.6344C2.3758 13.6738 2.34912 13.7203 2.33297 13.7708C2.31681 13.8212 2.31154 13.8746 2.31751 13.9272C2.58011 16.0942 3.5616 18.1106 5.10508 19.654C6.64856 21.1975 8.66492 22.179 10.8319 22.4416C10.8846 22.4476 10.9379 22.4423 10.9884 22.4262C11.0389 22.41 11.0853 22.3833 11.1248 22.3479C11.1642 22.3125 11.1956 22.2691 11.2171 22.2206C11.2385 22.1721 11.2494 22.1196 11.2491 22.0666L11.2491 15.9476C11.2492 15.8682 11.2245 15.7909 11.1785 15.7263C11.1324 15.6617 11.0672 15.6132 10.9922 15.5876Z" fill="currentColor"/>
</svg>
